<?xml version="1.0" encoding="UTF-8"?>
<svg width="752pt" height="752pt" version="1.1" viewBox="0 0 752 752" xmlns="http://www.w3.org/2000/svg">
 <defs>
  <clipPath id="a">
   <path d="m139.21 244h473.58v264h-473.58z"/>
  </clipPath>
 </defs>
 <g clip-path="url(#a)">
  <path d="m508.63 276.92c18.426-10.434 39.387-15.543 60.543-14.762 8.2305 0.19141 16.242 2.707 23.102 7.2578s12.293 10.949 15.672 18.457c3.9766 7.6367 5.5664 16.293 4.5625 24.844-1 8.5547-4.5469 16.605-10.18 23.117-12.719 16.598-29.332 29.801-48.371 38.445-5.1641 2.3516-10.543 4.1992-16.066 5.5156-22.844 5.3164-45.633 10.859-68.418 16.418-7.8164 1.6797-14.805 6.0391-19.754 12.316-12.551 15.992-29.227 27.426-45.344 39.336-6.2461 3.7539-12.816 6.9453-19.625 9.5312 4.6836 2.1875 9.9961 2.6289 14.977 1.2461 22.824-3.1406 46.004-4.0391 68.344-10.336 18.191-5.1289 37.066-7.8125 54.59-15.348 2.1172-0.82813 4.3242-1.3906 6.5742-1.6797 1.5156-0.45312 3.1328 0.24609 3.8398 1.6602 0.70703 1.4102 0.29688 3.125-0.97266 4.0664-1.3555 1.3125-2.8711 2.4492-4.5117 3.3828-21.062 11.098-40.535 24.906-61.73 35.84-9.668 5.1992-19.773 9.5352-30.199 12.965-27.832 8.6055-55.84 17.043-85.242 18.133v-0.003906c-10.609 0.51562-21.242-0.070313-31.727-1.7422-18.75-2.418-37.332-5.9648-55.652-10.625-31.656-10.348-62.285-23.617-91.488-39.633-8.0469-4.1523-16.699-7.1289-25.035-10.723-2.125-0.74609-4.1094-1.832-5.8828-3.2148-1.1992-0.98047-1.7109-2.5703-1.3125-4.0664 0.40234-1.4922 1.6406-2.6133 3.168-2.8633 3.7227-0.71875 7.5273-0.88672 11.301-0.50391 30.426 3.7969 60.836 7.7227 91.227 11.781 8.5742 1.1328 17.27 1.168 26.262 2.2031-3.0508-1.6953-6.0469-3.5-9.1602-5.0742h-0.003906c-31.531-15.246-57.582-39.859-74.586-70.477-5.6641-10.281-11.277-20.59-16.84-30.926h-0.003906c-3.4609-6.3203-6.1875-13.016-8.1367-19.953-4.8086-18.309-8.5508-36.875-11.215-55.613-2.2148-14.449 0.67578-17.52 15.59-18.035 18.543-0.64453 37.102 1.0586 55.66-0.10547 15.113-0.94531 30.09-3.4023 45.316-3.207 27.648 0.35156 55.297 0.41797 82.953 0.19922 18.207-0.14844 36.258 1.2891 54.375 2.8477h-0.003907c25.945 2.5977 52.066 2.9688 78.078 1.1133 6.7969-0.82031 13.691-0.09375 20.176 2.1172 2.4531 0.44922 4.5977 1.9336 5.8867 4.0703 1.2891 2.1367 1.5977 4.7227 0.85156 7.1055-0.78516 4.9414-1.3164 9.9219-1.5859 14.922zm-161.09-24.309c7.0391 7.0078 13.133 12.352 14.184 20.879 0.54688 4.4375 2.3086 9.4375-2.5938 12.379v0.003906c-4.2227 2.0625-9.2734 1.3438-12.75-1.8203-3.2539-2.2031-6.1914-4.8789-9.7422-7.7266-0.76953 5.9375-2.4883 11.711-5.0859 17.105-2.3398 3.8672-5.207 8.1055-10.676 6.6758-4.6836-1.2266-5.5938-5.5156-6.3438-9.8164h-0.003906c-1.2344-7.4375-0.84766-15.051 1.1328-22.324-23.66 2.418-25.406 1.3164-24.676-15.582-8.9844-0.40234-18.023-1.4648-27.004-1.082-26.848 1.1406-53.645 3.3672-80.551 3.4336-6.8008-0.48438-13.633-0.26562-20.391 0.64844-4.5273 0.94141-6.7109 2.8242-5.7852 7.668 2.5586 13.367 4.9492 26.766 7.5117 40.133 4.4219 23.066 15.441 43.348 27.023 63.367 4.5859 9.4219 10.383 18.203 17.238 26.125 1.793-0.19922 1.8789-1.3633 2.2695-2.3672 3.0625-7.8047 5.4844-8.9219 12.305-5.3867 2.1289 0.80469 3.9766 2.207 5.3242 4.0391 3.6367 7.5547 8.3789 9.1094 16.617 6.543 6.582-2.0547 9.3945 3.1484 6.3984 9.6641-1.2422 2.7031-4.5938 4.0117-4.6797 7.6055v-0.003906c0.9375 0.5625 1.9102 1.0586 2.9141 1.4883 11.125 3.9336 11.371 3.9727 8.957 15.949-0.79687 3.9648 1.6992 4.3906 3.8477 5.6719 10.414 6.1953 21.52 11.148 33.086 14.762 13.129 3.543 26.43 6.4141 39.852 8.6016 0.97266 0.19531 2.1328-0.52734 3.1211-0.80078 0.40234-2.3477-1.1719-3.5664-2.3164-5.0273-1.5938-2.0391-4.0547-4.0781-2.3672-6.9375 1.6953-2.8711 4.9453-3.1094 8.0117-3.4336 3.3906-0.35938 6.4336 2.6172 10.332 0.78125 0.60938-7.2383-0.22656-14.922 3.5977-21.898 3.3242-6.0586 6.4141-6.2031 10.73-0.60938 2.5508 3.3047 1.5625 8.3359 5.6719 10.859 5.5977-1.832 10.613-6.125 17.172-3.6992 7.5625 2.793 4.4766 10.164 6.707 15.785h0.003906c24.172-15.031 45.254-34.543 62.113-57.48 1.7969-1.9492 2.9297-4.4141 3.2383-7.043-0.49219-5.4102 2.6289-8.1953 5.8672-11.477 1.9961-2.2695 3.625-4.8359 4.832-7.6055 7.8711-16.348 14.586-33.234 20.094-50.523 5.2148-14.234 7.9883-29.242 8.2031-44.398-0.097657-8.0078-1.0312-9.1523-8.9766-9.5625-1.8945-0.058593-3.7891-0.003906-5.6719 0.15625-32.879 1.4453-65.82 0.29688-98.52-3.4297-13.34-1.8242-26.859-1.9219-40.223-0.28906zm-174.11 191.8c-0.14062 2.8398 0.70703 3.6055 1.6875 4.1719 18.965 11.059 38.762 20.625 59.215 28.609 22.555 8.8398 45.984 15.266 69.895 19.164 20.855 3.8047 42.137 4.6914 63.238 2.6328 16.828-2.6133 33.449-6.457 49.723-11.492 21.859-5.9883 42.742-15.098 62.004-27.047 5.3047-2.1602 10.082-5.4375 14.008-9.6133-4.7969-0.67188-9.6875 0.046874-14.09 2.0703-16.012 4.6562-32.461 7.6484-49.086 8.9297-17.73 1.5-35.293 4.5156-53.047 5.4648-15.812 0.84375-31.637 3.2617-47.5 0.86328-28.77-4.3555-57.031-11.613-85.984-14.973-23.246-2.6992-46.449-5.8047-70.062-8.7812zm304.34-78.836c24.312-5.2773 46.254-8.793 66.66-18.035h-0.003907c14.641-6.3867 27.402-16.41 37.07-29.117 2.7305-3.418 3.875-7.832 3.1484-12.145-0.72656-4.3086-3.2578-8.1055-6.9531-10.438-9.207-4.7656-19.344-8.4062-29.504-5.418h-0.003906c-15.078 3.5938-29.566 9.3359-43.016 17.043-3.8047 1.8242-6.8047 4.9883-8.4219 8.8828-5.1875 16.824-11.527 33.273-18.977 49.227zm-11.359 23.527c1.375 0.035157 2.75-0.039062 4.1133-0.21484 20.578-4.875 41.121-9.8828 61.719-14.684 27.18-6.4023 51.047-22.586 67.055-45.465 4.8125-5.9766 7.2227-13.543 6.75-21.203-2.4414-28-21.906-38.824-44.773-37.848-17.039 0.98828-33.695 5.4219-48.969 13.031-7.5312 3.5977-9.2969 8.6562-9.6406 17.602 10.344-5.8984 20.617-8.3711 30.02-12.84 15.539-7.3867 30.23-5.7344 46.082-0.074219 13.023 4.6484 16.457 26.914 8.8008 35.723-13.125 15.266-29.863 27.004-48.688 34.148-16.457 5.6367-33.391 9.7812-50.594 12.375-10.789 2.0352-19.145 6.8555-21.875 19.449zm-111.95-108.96c-0.36719-10.969-6.4844-20.938-16.098-26.234-1.0547-0.25391-2.1641-0.15234-3.1562 0.28906-0.53516 0.22656-0.94141 0.67188-1.1211 1.2188-0.17969 0.55078-0.11328 1.1523 0.18359 1.6445 4.832 8.7109 8.9961 18.059 20.191 23.082zm-31.469 14.348c6.3008-9.0156 7.6953-20.578 3.7148-30.832-5.2422 9.0195-9.5703 18.137-3.7148 30.832zm49.336 159.34c8.9375-2.1445 11.902-9.0117 15.477-14.941 1.4414-2.3906-0.28125-4.332-3.3477-3.7617-7.7812 1.4453-11.812 7.2773-12.129 18.699zm-9.8477-5.9609c3.1562-9.3633 3.0039-11.062-1.3984-18.234l-0.003907-0.003906c-1.5469 2.8516-2.2383 6.0898-1.9922 9.3242 0.25 3.2344 1.4258 6.3281 3.3906 8.9102zm-145.46-57.641c0.26172 3.4844 1.4531 6.8398 3.457 9.7031 2 2.8672 4.7344 5.1445 7.918 6.5898-1.4062-7.8711-1.918-13.949-11.375-16.293zm128.72 62.125c2.6914 3.9023 5.375 8.0781 12.855 5.7578v0.003906c-3.1016-3.8906-7.8906-6.0352-12.855-5.7617zm-28.434-198.63c-6.5469 0.67578-10.934 1.3594-14.453 5.8828 6.2227 2.1914 9.5078-1.2227 14.453-5.8789zm-74.953 167.47c2.6055 3.5742 4.6367 6.8555 9.2617 4.8828 0.5625-0.42969 0.86328-1.1172 0.79297-1.8203-1.8789-3.4922-5.0977-3.6836-10.055-3.0625zm1.5508-19.195c-4.7773 2.7812-8.0195 4.0195-7.0312 8.4414h-0.003906c2.043-0.44531 3.8242-1.6914 4.9414-3.457 0.83203-1.6016 1.5312-3.2656 2.0898-4.9844z"/>
 </g>
 <path d="m285.78 376.3c-2.9883-2.8359-6.6602-2.457-9.832-3.5508-8.0781-2.7812-9.043-7.0586-2.9219-13.344 5.4883-5.6289 11.449-10.254 20.324-5.8711l-0.003906 0.003906c0.44922-4.8203 1.1406-9.6172 2.0742-14.367 2.0469-8.1602 6.8359-9.4297 13.105-3.8438 2.6289 2.2383 4.2734 5.418 4.5938 8.8555 0.28125 2.9609 0.30469 5.9492 0.46484 9.3398 4.5625-1.0508 8.4844-2.3008 12.496-2.8047 7.3789-0.92969 11.301 4.5938 8.168 11.453-2.8125 4.5508-6.3477 8.6172-10.465 12.031 1.2578 4.4766 6.1094 5.5508 8.1602 9.1133 2.1016 3.6484 1.3984 5.7188-2.707 6.3086-1.8555 0.26562-3.7852-0.015625-5.6758 0.089844-1.4648 0.082031-2.918 0.38672-5 0.67578-0.42969 5.4844 2.4023 10.422 1.6016 15.625-0.66016 4.2812-1.4453 8.6016-6.5234 9.4453-4.4258 0.73437-7.0117-2.5195-8.7422-5.9492-2.3711-4.7031-4.2383-9.6562-6.4609-14.824-3.5703 0.16797-4.5703 4.3398-7.6445 5.4883l0.003907 0.003907c-4.1641 2.2109-9.293 1.3789-12.547-2.0312-3.4023-3.3945-3.5664-8.8516-0.375-12.441 2.3945-3.3203 5.2617-6.293 7.9062-9.4062zm43.527-19.789c-10.371 0.41016-15.555 5.7227-19.742 14.602 4.4219 0.003907 8.7266-1.4141 12.281-4.043 3.5547-2.6289 6.168-6.332 7.4609-10.559zm-25.188 3.125c2.4531-6.1953 4.9492-10.844 3.5312-16.312-0.40625-1.8984-2.0352-3.2969-3.9766-3.4102-2.5586-0.17187-2.9844 2.1562-3.2461 3.7812l0.003907-0.003906c-1.3711 5.5977-0.003907 11.516 3.6875 15.945zm-8.3047 7.4023c-7.2109-11.902-10.117-12.113-18.371-1.6719 5.8242 2.3516 12.215 2.9336 18.367 1.6719zm11.312 19.609c-0.94531 12.977-0.41406 14.707 5.9297 21.035 2.8438-8.4141-1.5352-14.637-5.9297-21.035zm-11.059-6.8359c-5.3281 3.4883-9.4805 4.8125-11.887 8.7852-0.80078 1.3242-1.3711 2.8281-0.3125 4.0586l-0.003907 0.003906c0.61328 0.72266 1.5078 1.1445 2.4531 1.1562 0.94531 0.011719 1.8516-0.38672 2.4805-1.0977 3.5117-3.5898 6.0195-8.0391 7.2695-12.906z"/>
 <path d="m202.95 310.3c-6.3789-5.7227-13.141-10.691-16.09-18.781-2.2461-6.168-0.32031-8.7148 6.0938-7.8828 7.5625 0.98047 12.555 6.4805 17.852 10.902 3.4141-1.4062 3.1328-4.3359 3.9766-6.7227h-0.003906c1.2148-3.9766 2.75-7.8477 4.5938-11.574 2.957-5.3672 7.0547-6.8984 11.145-4.9414v-0.003906c4.8672 2.5039 7.1289 8.2266 5.2891 13.383-0.63281 1.7734-1.6836 3.3945-2.457 5.1211-0.60156 1.3477-1.0703 2.7539-1.9336 5.0117l0.003906-0.003906c6.4297 0.55859 12.723 2.1719 18.625 4.7812 7.1172 3.3125 7.8086 7.2891 1.8398 12.309-3.3711 2.4961-7.4609 3.8281-11.656 3.7969-2.5664 0.19922-5.3438-0.36719-7.7266 1.5977v-0.003906c1.7656 4.9336 3.2773 9.9531 4.5352 15.039 1.4961 7.4805-2.4336 10.852-9.6562 8.8086-3.0039-0.66406-5.5781-2.5859-7.0664-5.2773-1.5664-3-3.1406-5.9922-5.0039-9.5508-4.2461 2.2148-8.0352 4.5039-12.074 6.2148-4.4375 1.8789-9.125 2.3281-12.062-2.5469-2.3906-4.1719-1.1133-9.4883 2.9141-12.113 2.7344-2.5352 5.6641-4.8516 8.8633-7.5625zm17.637-12.832h-0.003906c5.3281-4.5703 8.4219-11.215 8.4922-18.234-0.039063-1.125-2.0039-1.7266-2.6094-1.082v0.003906c-4.7695 4.7109-7.2773 11.246-6.8828 17.938 0.019531 0.30469 0.41016 0.58203 1 1.375zm8.9688 38.211c-0.47656-11.152-1.1172-12.324-8.3594-16.453h-0.007813c1.1055 6.1875 4.0156 11.914 8.3633 16.453zm0.046875-30.191c5.4336 2.6484 9.6445 4.5508 14.77 0.16797-5.0195-2.5781-9.2266-4.4883-14.773-0.16797zm-23.703-3.2422c-1.9922-3.8867-3.9141-8.0391-10.188-9.0039h-0.003906c1.5469 4.6055 5.4297 8.0352 10.188 9.0039zm2.125 16.883h-0.003906c-4.1719 0.007812-7.9414 2.5-9.5781 6.3398 4.0938-0.25391 7.7422-2.668 9.5781-6.3398z"/>
 <path d="m460.97 284.69c4.1172-2.4375 7.5156-4.7734 11.188-6.5352 4.4414-2.6016 10.098-1.75 13.574 2.0508 3.7969 4.0234 2.2188 8.4297-0.015625 12.609-3.4219 5.8984-8.4102 10.73-14.41 13.969-0.042969 4.2305 3.6367 6.7344 4.1172 10.566v-0.003906c0.86719 3.3789-0.14062 6.9648-2.6406 9.3906-3.1953 2.6289-6.4688 0.78516-9.3516-1.1172l-0.003907 0.003906c-1.9609-1.4492-3.8516-2.9961-5.6562-4.6367-3.0312 2.8086-2.4414 7.0664-4.3398 10.152-2.2383 3.6406-4.4844 7.5859-9.3438 7.043-5.4023-0.60156-5.5703-5.6328-6.1016-9.5859h0.003906c-0.23438-3.3984-0.125-6.8086 0.32812-10.18 0.25-3.543-0.1875-6.1602-4.832-5.0273l-0.003906-0.003907c-3.3945 0.61328-6.8984 0.066407-9.9453-1.5547-3.332-1.1055-5.7344-4.0273-6.1719-7.5117s1.168-6.9102 4.125-8.8047c1.4961-1.1602 3.1484-2.1055 4.9023-2.8086 8.5859-3.5195 16.562-6.8906 10.934-19.055-0.73047-2.0312-0.59375-4.2734 0.37891-6.1953 0.97266-1.9258 2.6992-3.3633 4.7656-3.9766 4.5469-1.707 7.9688 1.0039 10.719 4.4609 3.6484 5.0312 6.2891 10.719 7.7812 16.75zm6.6641 14.066c5.3516-1.5273 9.8633-5.1562 12.5-10.059 0.41016-1.0039 0.32031-2.1406-0.23437-3.0703-1-1.2109-2.7227-1.543-4.1016-0.78906-4.2617 2.2578-8.4023 4.7695-12.48 7.3516-1.5195 0.96094-3.3203 2.2461-2.0469 4.4766 1.0195 1.7852 2.9219 2.1367 6.3633 2.0898zm-36.25 6.4336c4.7734-1.7227 10.672-2.1914 14.387-7.0625 0.26953-0.5 0.30078-1.0977 0.078125-1.625-0.21875-0.52344-0.66406-0.92188-1.2148-1.082-6-1.9922-10.895 1.2109-15.855 3.6992-1.5234 0.76172-3.7031 1.793-2.7305 4.1758 0.84375 2.0742 2.9766 1.8359 5.332 1.8945zm14.582-35.441c-1.6172 10.477-0.23047 13.852 6.7734 17.785h-0.003906c0.89844-3.3008 0.72656-6.8008-0.48828-9.9961-1.2188-3.1953-3.418-5.9219-6.2852-7.7891zm-0.5625 58.18c5.7148-8.1758 5.7305-8.2734 2.9648-18.707-3.8164 5.4453-4.9102 12.348-2.9648 18.707zm15.719-19.602c0.40625 3.082 0.69141 6.3125 4.7422 7.8516l0.003907-0.003906c0.45703-3.4062-1.5156-6.6719-4.7461-7.8477z"/>
 <path d="m408.16 382.42c-1.5898-0.011719-3.1758 0.070313-4.7578 0.24609-5.1328 1.0742-9.1289 0.066406-10.277-5.7578-1.0234-5.1719 2.4492-12.043 7.7539-11.98 11.801 0.14062 13.348-6.0469 12.328-15.5-0.63281-3.1289 1.125-6.2461 4.125-7.3281 3.3281-0.94531 5.4062 1.7734 7.5898 3.8789 4.7578 4.5898 4.3906 10.875 4.6992 17.117 5.8359-1.2773 9.4766-5.2031 14.625-5.2852 6.6641-0.10547 14.371 3.707 14.992 7.8242v-0.003907c-0.18359 3.0117-1.2461 5.9062-3.0547 8.3242-1.8086 2.4141-4.2891 4.2461-7.1289 5.2695-1.4023 0.5625-2.8633 0.97266-4.3594 1.2109-4.8594 0.73438-6.1211 3.125-4.5156 7.8359 1.1914 4.0039 1.457 8.2266 0.78516 12.352-0.39453 3.1758-1.6953 5.9062-5.2969 6.4219-2.7266 0.29297-5.3164-1.2539-6.3516-3.793-1.2969-2.2305-2.6289-4.4414-4.2734-7.207-3.6445 1.8516-4.4258 5.5703-6.8672 7.6406-2.6094 2.2148-5.3789 4.5312-9.0664 3.0859-3.5938-1.5352-5.8633-5.1367-5.6953-9.043-0.27344-2.6445 0.20703-5.3125 1.3789-7.6992 1.0352-1.9883 1.8281-4.1016 3.3672-7.6094zm24.742-11.648c6.4492 3.6836 11.586 4.5078 16.68 0.23437 1.4375-1.207 3.0156-2.8359 2.1875-4.7773-0.97656-1.7031-2.8555-2.6797-4.8125-2.5039-5.4766 0.23047-10.594 2.7969-14.055 7.0469zm-13.254 9.3828h-0.003906c-4.3359 4.1758-7.7461 9.2188-10.004 14.801-0.66406 1.8594-0.80469 4.0039 1.1914 4.8555 2.0859 0.88672 3.3906-1.0234 4.2969-2.6172 3.2383-5.0742 4.8164-11.027 4.5156-17.039zm-3.6484-9.2539h-0.003906c-4.3477-1.8477-9.1758-2.2383-13.766-1.1133-1.4492 0.54297-2.2578 2.0938-1.875 3.5938 0.050781 0.75391 0.46484 1.4375 1.1094 1.832 0.64453 0.39844 1.4375 0.45703 2.1328 0.16016 4.3828-0.67969 8.5898-2.1992 12.398-4.4727zm17.766 24.215c0.69141-5.3789-1.1406-10.773-4.9688-14.617-0.1875 5.3164 1.582 10.516 4.9688 14.617zm-11.914-33.414c0.89453-7.375 0.89453-7.375-2.5195-11.344-0.85938 4.3828-1.582 8.1094 2.5195 11.344z"/>
</svg>
